<svg version="1.1" id="Layer_1" xmlns="http://www.w3.org/2000/svg" xmlns:xlink="http://www.w3.org/1999/xlink" x="0px" y="0px"
	 width="100%" viewBox="0 0 2478 778" enable-background="new 0 0 2478 778" xml:space="preserve">
<path fill="#000000" opacity="1.000000" stroke="none" 
	d="
M1712.000000,779.000000 
	C1141.333496,779.000000 571.166870,779.000000 1.000230,779.000000 
	C1.000153,519.666809 1.000153,260.333618 1.000077,1.000334 
	C826.999695,1.000223 1652.999390,1.000223 2478.999268,1.000111 
	C2478.999512,260.332977 2478.999512,519.665955 2478.999756,778.999512 
	C2223.500000,779.000000 1968.000000,779.000000 1712.000000,779.000000 
M440.000031,398.358032 
	C439.668304,390.092255 439.346680,381.826019 439.002777,373.560760 
	C438.303680,356.757446 434.226746,340.695068 428.503174,324.963959 
	C419.763794,300.944031 406.776245,279.530426 388.746735,261.422363 
	C380.621613,253.261795 371.912354,245.576508 362.820557,238.508560 
	C347.498474,226.597260 330.120117,218.212906 311.762939,212.153030 
	C297.795441,207.542221 283.356293,205.121216 268.603394,203.730484 
	C253.135284,202.272339 237.843460,202.879959 222.737595,205.327927 
	C199.222382,209.138672 177.071243,217.263062 156.629974,229.745163 
	C136.073303,242.297699 118.360298,257.933014 103.898178,277.280487 
	C93.461861,291.242218 85.090050,306.263458 78.807030,322.514374 
	C72.651970,338.434357 68.626678,354.883118 67.140442,371.831268 
	C66.354378,380.795166 66.463005,389.924774 67.134064,398.907349 
	C67.999069,410.486176 68.682648,422.277710 71.460358,433.477661 
	C80.349030,469.317505 97.959091,500.247559 125.084984,525.769226 
	C142.411560,542.071106 162.029556,554.436035 183.893234,563.371460 
	C202.798706,571.097778 222.483231,575.578003 242.979553,575.976501 
	C250.509872,576.122925 258.057892,576.270020 265.574982,575.922302 
	C272.786072,575.588806 280.106018,575.274353 287.135986,573.798401 
	C308.114227,569.393799 328.237091,562.579956 346.894989,551.658813 
	C366.572998,540.140625 383.829620,525.786377 398.150238,508.154205 
	C409.610901,494.043182 418.788757,478.414581 425.845856,461.567841 
	C434.201080,441.622253 438.360199,420.769165 440.000031,398.358032 
M1442.500000,483.000000 
	C1477.157715,482.088318 1511.903076,485.174652 1546.480957,480.946777 
	C1559.377197,479.369904 1571.434448,475.186371 1582.479736,468.093842 
	C1591.360474,462.391266 1598.272949,454.911469 1602.693359,445.500977 
	C1608.039062,434.120697 1609.819214,421.862671 1608.953979,409.328674 
	C1608.359863,400.720337 1605.498779,392.810547 1599.163940,386.752563 
	C1587.718140,375.806824 1573.150391,372.861816 1558.085449,372.101685 
	C1547.613403,371.573273 1537.092285,372.088318 1526.594604,371.982971 
	C1498.354736,371.699493 1470.109253,371.579498 1441.880615,370.837982 
	C1434.213745,370.636627 1431.445068,365.996735 1431.939941,360.231567 
	C1432.358643,355.353851 1435.418213,350.298370 1440.007446,349.105194 
	C1444.201782,348.014648 1448.588501,347.102539 1452.893799,347.088074 
	C1496.054688,346.943176 1539.216553,347.024414 1582.377563,346.911896 
	C1584.128418,346.907318 1586.456055,346.104034 1587.534302,344.837738 
	C1597.477539,333.159424 1607.240967,321.326752 1616.972168,309.469635 
	C1619.857300,305.954285 1622.474731,302.219238 1625.461792,298.257202 
	C1624.273804,298.097565 1623.943848,298.012756 1623.614380,298.014709 
	C1569.035156,298.339050 1514.456299,298.802094 1459.876709,298.916962 
	C1444.071533,298.950226 1428.745361,300.999664 1414.152954,307.072876 
	C1400.815308,312.623810 1389.568237,321.044556 1383.074707,334.282166 
	C1377.443604,345.761444 1375.166016,357.964447 1376.862305,370.952087 
	C1377.998413,379.650635 1381.059448,387.132812 1386.983276,393.443848 
	C1398.000122,405.180634 1412.596436,408.563385 1427.646362,408.819580 
	C1461.465820,409.395294 1495.301880,408.961182 1529.130859,409.044464 
	C1533.868774,409.056122 1538.604004,409.680298 1543.342285,409.995911 
	C1548.048706,410.309418 1551.259277,412.948395 1552.557983,417.180389 
	C1553.846680,421.380005 1552.966797,425.397644 1549.709351,428.898529 
	C1544.900635,434.066742 1538.576416,434.884979 1532.310669,434.907776 
	C1485.650269,435.077667 1438.989136,434.977112 1392.328369,435.081970 
	C1390.420532,435.086243 1387.864258,435.719330 1386.711670,437.028931 
	C1377.100464,447.949646 1367.713867,459.069183 1358.336182,470.193359 
	C1355.043701,474.099213 1351.965210,478.185333 1348.145752,483.000000 
	C1379.989868,483.000000 1410.744873,483.000000 1442.500000,483.000000 
M1229.789917,434.009338 
	C1230.504517,434.595032 1231.415405,435.050079 1231.904663,435.785583 
	C1241.542725,450.276489 1251.269287,464.712494 1260.611572,479.392731 
	C1262.420410,482.234985 1264.215576,483.056213 1267.282471,483.045349 
	C1290.607422,482.962524 1313.932739,483.004150 1337.257935,482.988312 
	C1338.475830,482.987488 1339.693604,482.816864 1341.611084,482.672699 
	C1321.165161,457.901154 1301.211792,433.726562 1280.787354,408.981201 
	C1287.934937,408.981201 1294.542969,409.946106 1300.765381,408.805969 
	C1322.094116,404.897858 1338.355225,393.651550 1347.741333,373.606384 
	C1352.218384,364.045563 1353.390259,353.977936 1351.152954,343.647552 
	C1348.548340,331.621948 1341.682495,322.491669 1332.298584,314.612732 
	C1317.288208,302.009796 1300.012573,295.365845 1280.763306,295.152405 
	C1237.117188,294.668396 1193.462036,294.965607 1149.811035,295.111267 
	C1147.826538,295.117889 1145.277954,296.236359 1143.954590,297.704559 
	C1131.211670,311.841400 1118.665771,326.156006 1106.096802,340.449158 
	C1104.985352,341.713135 1104.110596,343.185242 1102.811279,345.000000 
	C1105.375732,345.000000 1107.187134,345.000000 1108.998413,345.000000 
	C1163.146118,345.000000 1217.293945,344.996002 1271.441650,345.003723 
	C1281.041992,345.005066 1289.725586,352.905975 1289.997681,361.835449 
	C1290.286011,371.298676 1281.610596,379.989594 1271.768066,379.992340 
	C1215.121216,380.008118 1158.474243,380.000000 1101.827393,380.000000 
	C1100.020630,380.000000 1098.213989,380.000000 1096.358276,380.000000 
	C1090.425659,414.429199 1084.545410,448.553406 1078.661621,482.698792 
	C1098.425659,482.698792 1117.176392,482.698792 1135.551880,482.698792 
	C1138.483765,466.296692 1141.351929,450.250519 1144.256592,434.000549 
	C1172.631470,434.000549 1200.769775,434.000549 1229.789917,434.009338 
M2331.500000,298.000000 
	C2288.375000,298.000000 2245.249756,298.000000 2201.973145,298.000000 
	C2191.035889,359.838593 2180.167480,421.287201 2169.252441,483.000000 
	C2179.777832,483.000000 2190.098389,483.000000 2200.418945,483.000000 
	C2251.074951,483.000000 2301.730957,483.026123 2352.386719,482.896698 
	C2354.252930,482.891937 2356.730225,481.872375 2357.882080,480.470459 
	C2367.277344,469.036224 2376.453613,457.421173 2385.629150,445.807831 
	C2388.258301,442.480194 2390.666992,438.978424 2393.662598,434.894012 
	C2340.538330,434.894012 2288.431641,434.894012 2235.383545,434.894012 
	C2236.638916,428.637756 2238.739502,422.824036 2238.714600,417.019440 
	C2238.688477,410.889099 2241.593750,410.930084 2246.020264,410.943542 
	C2279.845947,411.046417 2313.672607,411.055237 2347.497803,410.877045 
	C2349.778809,410.865082 2352.571777,409.634308 2354.230225,408.038788 
	C2359.581299,402.890778 2364.497803,397.292297 2369.610596,391.894745 
	C2376.439941,384.685089 2383.306641,377.511078 2390.116943,370.283356 
	C2390.574707,369.797455 2390.690430,368.989166 2391.130859,367.935059 
	C2342.839844,367.935059 2295.049072,367.935059 2247.263184,367.935059 
	C2247.868652,364.048828 2248.504150,360.418427 2248.989014,356.768005 
	C2250.286377,347.003387 2250.260742,347.000000 2260.137939,347.000000 
	C2295.297119,347.000000 2330.456543,346.979065 2365.615723,347.045654 
	C2368.037354,347.050232 2369.506836,346.402924 2371.216064,344.460388 
	C2377.221436,337.634949 2383.641357,331.173462 2389.921387,324.590637 
	C2397.696045,316.441345 2405.493164,308.313629 2413.258057,300.154968 
	C2413.640137,299.753265 2413.805908,299.145325 2414.402344,298.000000 
	C2386.672607,298.000000 2359.586426,298.000000 2331.500000,298.000000 
M881.528992,342.982208 
	C879.877563,344.628693 878.122742,346.184753 876.591248,347.936127 
	C865.372498,360.765350 854.245667,373.675201 842.994751,386.475952 
	C834.642029,395.979279 826.097900,405.314087 817.726440,414.801117 
	C805.900635,428.202881 794.165527,441.684662 782.371399,455.114441 
	C777.171082,461.035797 771.882629,466.879944 766.709045,472.824341 
	C764.009094,475.926636 761.471558,479.170380 758.327271,483.000000 
	C779.944336,483.000000 800.572876,482.758087 821.188110,483.175507 
	C826.144714,483.275879 828.871033,480.988098 831.572510,477.874878 
	C839.615295,468.606079 847.485657,459.186890 855.575500,449.959808 
	C864.026062,440.321289 872.711792,430.889252 881.189026,421.273712 
	C892.789124,408.116058 904.298950,394.878784 915.828369,381.658905 
	C921.459778,375.201782 927.047913,368.706879 932.917114,361.926971 
	C945.202881,386.411621 957.367249,410.654297 969.583252,435.000000 
	C948.778625,435.000000 928.117615,434.910217 907.459839,435.127014 
	C905.178894,435.150940 902.298462,436.343933 900.744446,437.986542 
	C889.650024,449.713684 878.794434,461.668121 867.943604,473.623566 
	C865.414551,476.410156 863.195435,479.478149 860.653137,482.641327 
	C928.537720,482.641327 995.709595,482.641327 1063.498291,482.641327 
	C1062.624023,480.681030 1062.051514,479.208069 1061.331421,477.811096 
	C1051.754761,459.231628 1042.143555,440.670074 1032.569458,422.089325 
	C1024.387207,406.209778 1016.201416,390.331787 1008.090332,374.415833 
	C998.156555,354.923370 988.577332,335.244415 978.324158,315.922363 
	C969.420715,299.143829 959.063782,295.004822 941.170715,295.795074 
	C926.879944,296.426300 916.786682,304.265442 907.567261,313.271484 
	C898.346680,322.278625 890.482605,332.674316 881.528992,342.982208 
M2160.962402,334.239044 
	C2162.913818,322.287201 2164.865479,310.335388 2166.879395,298.000793 
	C2150.312012,298.000793 2133.837402,297.928223 2117.366943,298.158569 
	C2116.228271,298.174469 2114.365479,300.311066 2114.115234,301.692719 
	C2111.256836,317.460266 2108.769531,333.294922 2105.937256,349.067505 
	C2102.609863,367.596497 2099.040283,386.082031 2095.431152,405.358795 
	C2091.645264,401.066559 2088.278076,397.075378 2084.727539,393.254242 
	C2070.673828,378.128326 2056.601807,363.019012 2042.457397,347.977997 
	C2034.623657,339.647614 2026.607910,331.488586 2018.723633,323.205536 
	C2014.055420,318.301178 2008.968384,313.684601 2004.980225,308.268250 
	C1997.780518,298.490540 1988.722412,294.679108 1976.630859,295.854065 
	C1963.244263,297.154877 1953.796753,303.505798 1948.015259,315.340576 
	C1941.955322,327.745300 1941.643555,341.558014 1939.061890,354.797791 
	C1936.677002,367.027466 1934.824463,379.360626 1932.712036,391.643829 
	C1930.490479,404.561554 1928.266846,417.479065 1925.991943,430.387451 
	C1923.830566,442.651093 1921.570679,454.897369 1919.416992,467.162292 
	C1918.510254,472.325500 1917.764771,477.516998 1916.898071,482.999359 
	C1933.853760,482.999359 1950.170776,483.053101 1966.485352,482.884033 
	C1967.631104,482.872192 1969.499146,481.392639 1969.765625,480.289886 
	C1970.789917,476.049622 1971.294189,471.684113 1972.001099,467.366730 
	C1974.069092,454.737518 1976.074585,442.097595 1978.229858,429.483307 
	C1980.408813,416.730469 1982.714722,403.999023 1985.012817,391.266907 
	C1985.860229,386.571960 1986.844604,381.901794 1988.001099,376.029266 
	C1992.202881,380.783447 1995.578125,384.773651 1999.134033,388.595642 
	C2013.424805,403.955811 2027.741089,419.292511 2042.110107,434.579407 
	C2049.485596,442.426147 2057.013428,450.129333 2064.432129,457.935699 
	C2069.440674,463.206116 2075.206299,467.991272 2079.187744,473.958130 
	C2089.560303,489.503448 2110.237061,488.258728 2122.032471,480.510803 
	C2131.219482,474.476379 2136.803223,465.817993 2138.884033,455.322388 
	C2142.625000,436.449677 2145.633057,417.432404 2149.019775,398.488403 
	C2152.804443,377.318115 2156.669678,356.162170 2160.962402,334.239044 
M536.028198,372.801758 
	C532.500000,386.321350 530.722290,399.886078 532.906250,413.931549 
	C535.725037,432.059662 543.788086,446.951599 557.524170,459.151428 
	C575.447205,475.070038 596.871399,482.147156 620.097107,482.771759 
	C653.391113,483.667114 686.727234,483.029785 720.044861,482.907013 
	C721.615906,482.901215 723.590454,481.918884 724.679749,480.744537 
	C729.468872,475.581512 734.010559,470.188385 738.625488,464.864349 
	C747.046875,455.148987 755.456604,445.423492 764.478943,435.000000 
	C761.926086,435.000000 760.337219,435.010437 758.748535,434.998474 
	C714.687317,434.667023 670.622192,434.568726 626.567749,433.831268 
	C615.816711,433.651306 605.790710,428.990601 598.692139,420.906860 
	C586.258118,406.747131 587.125244,388.187836 596.974304,373.699463 
	C609.490295,355.287964 628.228760,347.643097 649.639587,347.167877 
	C679.611084,346.502625 709.608765,347.052612 739.594116,346.890015 
	C741.757263,346.878296 744.498779,345.866394 745.969238,344.348633 
	C752.487671,337.620300 758.554932,330.457947 764.947510,323.603821 
	C772.173157,315.856506 779.577759,308.276154 786.883179,300.602905 
	C787.384949,300.075775 787.708740,299.379181 788.616394,298.000000 
	C786.072021,298.000000 784.321594,297.988800 782.571228,298.001648 
	C737.506042,298.332916 692.440674,298.641052 647.376099,299.040344 
	C642.960205,299.079468 638.478882,299.296936 634.148254,300.089050 
	C615.557983,303.489319 597.645874,308.767883 581.383362,318.899353 
	C570.328491,325.786499 560.547791,333.887726 552.301392,344.048035 
	C545.391785,352.561310 540.753113,362.196869 536.028198,372.801758 
M1702.997192,353.382690 
	C1706.108398,335.086243 1709.219604,316.789825 1712.381958,298.192963 
	C1692.886353,298.192963 1674.118164,298.192963 1655.188721,298.192963 
	C1644.320190,359.698578 1633.470703,421.096161 1622.643555,482.367920 
	C1623.644043,482.746246 1623.943970,482.958801 1624.243896,482.958954 
	C1671.235107,482.982574 1718.226440,483.004242 1765.217529,482.917053 
	C1766.314209,482.915009 1767.651001,481.898895 1768.466431,480.988892 
	C1776.132812,472.435059 1783.773193,463.855988 1791.292236,455.172729 
	C1796.894043,448.703491 1802.305542,442.069519 1808.340210,434.866272 
	C1768.029541,434.866272 1728.620361,434.866272 1688.512329,434.866272 
	C1690.265869,424.880402 1691.950317,415.342743 1693.613647,405.801361 
	C1695.419312,395.442535 1697.156372,385.071472 1699.017334,374.722656 
	C1700.246094,367.889648 1701.640503,361.086456 1702.997192,353.382690 
M1904.997681,347.314575 
	C1906.868286,336.146973 1908.737671,324.979126 1910.610229,313.811859 
	C1911.475464,308.651611 1912.346802,303.492371 1913.236084,298.209534 
	C1893.665527,298.209534 1874.898438,298.209534 1856.001099,298.209534 
	C1845.119385,359.755463 1834.269653,421.119995 1823.359131,482.828857 
	C1843.180908,482.828857 1861.938477,482.828857 1880.919434,482.828857 
	C1881.429077,479.854218 1881.903564,477.004089 1882.407227,474.159149 
	C1884.266357,463.657867 1886.157715,453.162262 1887.994019,442.657013 
	C1889.831909,432.142975 1891.597290,421.616302 1893.432861,411.101837 
	C1895.600586,398.686035 1897.757446,386.267914 1900.017822,373.868805 
	C1901.580444,365.297485 1903.310425,356.756592 1904.997681,347.314575 
z"/>
<path fill="#FF0101" opacity="1.000000" stroke="none" 
	d="
M440.000000,398.839203 
	C438.360199,420.769165 434.201080,441.622253 425.845856,461.567841 
	C418.788757,478.414581 409.610901,494.043182 398.150238,508.154205 
	C383.829620,525.786377 366.572998,540.140625 346.894989,551.658813 
	C328.237091,562.579956 308.114227,569.393799 287.135986,573.798401 
	C280.106018,575.274353 272.786072,575.588806 265.574982,575.922302 
	C258.057892,576.270020 250.509872,576.122925 242.979553,575.976501 
	C222.483231,575.578003 202.798706,571.097778 183.893234,563.371460 
	C162.029556,554.436035 142.411560,542.071106 125.084984,525.769226 
	C97.959091,500.247559 80.349030,469.317505 71.460358,433.477661 
	C68.682648,422.277710 67.999069,410.486176 67.134064,398.907349 
	C66.463005,389.924774 66.354378,380.795166 67.140442,371.831268 
	C68.626678,354.883118 72.651970,338.434357 78.807030,322.514374 
	C85.090050,306.263458 93.461861,291.242218 103.898178,277.280487 
	C118.360298,257.933014 136.073303,242.297699 156.629974,229.745163 
	C177.071243,217.263062 199.222382,209.138672 222.737595,205.327927 
	C237.843460,202.879959 253.135284,202.272339 268.603394,203.730484 
	C283.356293,205.121216 297.795441,207.542221 311.762939,212.153030 
	C330.120117,218.212906 347.498474,226.597260 362.820557,238.508560 
	C371.912354,245.576508 380.621613,253.261795 388.746735,261.422363 
	C406.776245,279.530426 419.763794,300.944031 428.503174,324.963959 
	C434.226746,340.695068 438.303680,356.757446 439.002777,373.560760 
	C439.346680,381.826019 439.668304,390.092255 440.000000,398.839203 
M352.322968,284.166992 
	C351.450867,283.397064 350.575836,282.630371 349.707062,281.856720 
	C290.959534,229.540726 202.025391,233.306702 147.991150,290.399048 
	C84.472809,357.512268 99.449226,466.514160 178.800354,513.995300 
	C185.403976,517.946716 192.484146,521.101746 200.002304,524.965637 
	C200.002304,512.733215 199.838959,501.741699 200.092773,490.759857 
	C200.179123,487.024200 199.101807,484.963715 195.802734,482.924438 
	C154.338898,457.293579 134.821289,408.069275 147.377289,361.376007 
	C159.881317,314.876099 201.904190,281.639771 250.049606,280.171356 
	C296.551392,278.753082 339.498779,307.595093 355.799194,351.594482 
	C358.816895,359.740143 360.484680,368.385925 362.752472,376.716217 
	C374.113983,376.716217 385.546692,376.716217 397.418091,376.716217 
	C393.688995,340.341156 378.833435,309.819489 352.322968,284.166992 
M340.686066,505.192474 
	C371.585175,481.208221 390.099518,449.972321 396.506165,410.832428 
	C385.596344,410.832428 375.459839,410.962921 365.330109,410.758789 
	C361.966583,410.691010 360.635651,411.456421 359.712585,415.071106 
	C350.757050,450.141144 329.798889,475.411499 296.688934,490.174469 
	C289.088348,493.563416 280.864380,495.554352 271.959991,498.509735 
	C271.959991,439.444702 271.959991,381.926849 271.959991,324.479492 
	C258.961182,324.479492 246.549561,324.479492 234.096497,324.479492 
	C234.096497,394.184784 234.096497,463.576324 234.096497,533.364441 
	C273.224335,537.824158 308.530670,528.911011 340.686066,505.192474 
z"/>
<path fill="#FFFFFF" opacity="1.000000" stroke="none" 
	d="
M1442.000000,483.000000 
	C1410.744873,483.000000 1379.989868,483.000000 1348.145752,483.000000 
	C1351.965210,478.185333 1355.043701,474.099213 1358.336182,470.193359 
	C1367.713867,459.069183 1377.100464,447.949646 1386.711670,437.028931 
	C1387.864258,435.719330 1390.420532,435.086243 1392.328369,435.081970 
	C1438.989136,434.977112 1485.650269,435.077667 1532.310669,434.907776 
	C1538.576416,434.884979 1544.900635,434.066742 1549.709351,428.898529 
	C1552.966797,425.397644 1553.846680,421.380005 1552.557983,417.180389 
	C1551.259277,412.948395 1548.048706,410.309418 1543.342285,409.995911 
	C1538.604004,409.680298 1533.868774,409.056122 1529.130859,409.044464 
	C1495.301880,408.961182 1461.465820,409.395294 1427.646362,408.819580 
	C1412.596436,408.563385 1398.000122,405.180634 1386.983276,393.443848 
	C1381.059448,387.132812 1377.998413,379.650635 1376.862305,370.952087 
	C1375.166016,357.964447 1377.443604,345.761444 1383.074707,334.282166 
	C1389.568237,321.044556 1400.815308,312.623810 1414.152954,307.072876 
	C1428.745361,300.999664 1444.071533,298.950226 1459.876709,298.916962 
	C1514.456299,298.802094 1569.035156,298.339050 1623.614380,298.014709 
	C1623.943848,298.012756 1624.273804,298.097565 1625.461792,298.257202 
	C1622.474731,302.219238 1619.857300,305.954285 1616.972168,309.469635 
	C1607.240967,321.326752 1597.477539,333.159424 1587.534302,344.837738 
	C1586.456055,346.104034 1584.128418,346.907318 1582.377563,346.911896 
	C1539.216553,347.024414 1496.054688,346.943176 1452.893799,347.088074 
	C1448.588501,347.102539 1444.201782,348.014648 1440.007446,349.105194 
	C1435.418213,350.298370 1432.358643,355.353851 1431.939941,360.231567 
	C1431.445068,365.996735 1434.213745,370.636627 1441.880615,370.837982 
	C1470.109253,371.579498 1498.354736,371.699493 1526.594604,371.982971 
	C1537.092285,372.088318 1547.613403,371.573273 1558.085449,372.101685 
	C1573.150391,372.861816 1587.718140,375.806824 1599.163940,386.752563 
	C1605.498779,392.810547 1608.359863,400.720337 1608.953979,409.328674 
	C1609.819214,421.862671 1608.039062,434.120697 1602.693359,445.500977 
	C1598.272949,454.911469 1591.360474,462.391266 1582.479736,468.093842 
	C1571.434448,475.186371 1559.377197,479.369904 1546.480957,480.946777 
	C1511.903076,485.174652 1477.157715,482.088318 1442.000000,483.000000 
z"/>
<path fill="#FFFFFF" opacity="1.000000" stroke="none" 
	d="
M1229.349121,434.004944 
	C1200.769775,434.000549 1172.631470,434.000549 1144.256592,434.000549 
	C1141.351929,450.250519 1138.483765,466.296692 1135.551880,482.698792 
	C1117.176392,482.698792 1098.425659,482.698792 1078.661621,482.698792 
	C1084.545410,448.553406 1090.425659,414.429199 1096.358276,380.000000 
	C1098.213989,380.000000 1100.020630,380.000000 1101.827393,380.000000 
	C1158.474243,380.000000 1215.121216,380.008118 1271.768066,379.992340 
	C1281.610596,379.989594 1290.286011,371.298676 1289.997681,361.835449 
	C1289.725586,352.905975 1281.041992,345.005066 1271.441650,345.003723 
	C1217.293945,344.996002 1163.146118,345.000000 1108.998413,345.000000 
	C1107.187134,345.000000 1105.375732,345.000000 1102.811279,345.000000 
	C1104.110596,343.185242 1104.985352,341.713135 1106.096802,340.449158 
	C1118.665771,326.156006 1131.211670,311.841400 1143.954590,297.704559 
	C1145.277954,296.236359 1147.826538,295.117889 1149.811035,295.111267 
	C1193.462036,294.965607 1237.117188,294.668396 1280.763306,295.152405 
	C1300.012573,295.365845 1317.288208,302.009796 1332.298584,314.612732 
	C1341.682495,322.491669 1348.548340,331.621948 1351.152954,343.647552 
	C1353.390259,353.977936 1352.218384,364.045563 1347.741333,373.606384 
	C1338.355225,393.651550 1322.094116,404.897858 1300.765381,408.805969 
	C1294.542969,409.946106 1287.934937,408.981201 1280.787354,408.981201 
	C1301.211792,433.726562 1321.165161,457.901154 1341.611084,482.672699 
	C1339.693604,482.816864 1338.475830,482.987488 1337.257935,482.988312 
	C1313.932739,483.004150 1290.607422,482.962524 1267.282471,483.045349 
	C1264.215576,483.056213 1262.420410,482.234985 1260.611572,479.392731 
	C1251.269287,464.712494 1241.542725,450.276489 1231.904663,435.785583 
	C1231.415405,435.050079 1230.504517,434.595032 1229.349121,434.004944 
z"/>
<path fill="#FFFFFF" opacity="1.000000" stroke="none" 
	d="
M2332.000000,298.000000 
	C2359.586426,298.000000 2386.672607,298.000000 2414.402344,298.000000 
	C2413.805908,299.145325 2413.640137,299.753265 2413.258057,300.154968 
	C2405.493164,308.313629 2397.696045,316.441345 2389.921387,324.590637 
	C2383.641357,331.173462 2377.221436,337.634949 2371.216064,344.460388 
	C2369.506836,346.402924 2368.037354,347.050232 2365.615723,347.045654 
	C2330.456543,346.979065 2295.297119,347.000000 2260.137939,347.000000 
	C2250.260742,347.000000 2250.286377,347.003387 2248.989014,356.768005 
	C2248.504150,360.418427 2247.868652,364.048828 2247.263184,367.935059 
	C2295.049072,367.935059 2342.839844,367.935059 2391.130859,367.935059 
	C2390.690430,368.989166 2390.574707,369.797455 2390.116943,370.283356 
	C2383.306641,377.511078 2376.439941,384.685089 2369.610596,391.894745 
	C2364.497803,397.292297 2359.581299,402.890778 2354.230225,408.038788 
	C2352.571777,409.634308 2349.778809,410.865082 2347.497803,410.877045 
	C2313.672607,411.055237 2279.845947,411.046417 2246.020264,410.943542 
	C2241.593750,410.930084 2238.688477,410.889099 2238.714600,417.019440 
	C2238.739502,422.824036 2236.638916,428.637756 2235.383545,434.894012 
	C2288.431641,434.894012 2340.538330,434.894012 2393.662598,434.894012 
	C2390.666992,438.978424 2388.258301,442.480194 2385.629150,445.807831 
	C2376.453613,457.421173 2367.277344,469.036224 2357.882080,480.470459 
	C2356.730225,481.872375 2354.252930,482.891937 2352.386719,482.896698 
	C2301.730957,483.026123 2251.074951,483.000000 2200.418945,483.000000 
	C2190.098389,483.000000 2179.777832,483.000000 2169.252441,483.000000 
	C2180.167480,421.287201 2191.035889,359.838593 2201.973145,298.000000 
	C2245.249756,298.000000 2288.375000,298.000000 2332.000000,298.000000 
z"/>
<path fill="#FFFFFF" opacity="1.000000" stroke="none" 
	d="
M881.776367,342.721741 
	C890.482605,332.674316 898.346680,322.278625 907.567261,313.271484 
	C916.786682,304.265442 926.879944,296.426300 941.170715,295.795074 
	C959.063782,295.004822 969.420715,299.143829 978.324158,315.922363 
	C988.577332,335.244415 998.156555,354.923370 1008.090332,374.415833 
	C1016.201416,390.331787 1024.387207,406.209778 1032.569458,422.089325 
	C1042.143555,440.670074 1051.754761,459.231628 1061.331421,477.811096 
	C1062.051514,479.208069 1062.624023,480.681030 1063.498291,482.641327 
	C995.709595,482.641327 928.537720,482.641327 860.653137,482.641327 
	C863.195435,479.478149 865.414551,476.410156 867.943604,473.623566 
	C878.794434,461.668121 889.650024,449.713684 900.744446,437.986542 
	C902.298462,436.343933 905.178894,435.150940 907.459839,435.127014 
	C928.117615,434.910217 948.778625,435.000000 969.583252,435.000000 
	C957.367249,410.654297 945.202881,386.411621 932.917114,361.926971 
	C927.047913,368.706879 921.459778,375.201782 915.828369,381.658905 
	C904.298950,394.878784 892.789124,408.116058 881.189026,421.273712 
	C872.711792,430.889252 864.026062,440.321289 855.575500,449.959808 
	C847.485657,459.186890 839.615295,468.606079 831.572510,477.874878 
	C828.871033,480.988098 826.144714,483.275879 821.188110,483.175507 
	C800.572876,482.758087 779.944336,483.000000 758.327271,483.000000 
	C761.471558,479.170380 764.009094,475.926636 766.709045,472.824341 
	C771.882629,466.879944 777.171082,461.035797 782.371399,455.114441 
	C794.165527,441.684662 805.900635,428.202881 817.726440,414.801117 
	C826.097900,405.314087 834.642029,395.979279 842.994751,386.475952 
	C854.245667,373.675201 865.372498,360.765350 876.591248,347.936127 
	C878.122742,346.184753 879.877563,344.628693 881.776367,342.721741 
z"/>
<path fill="#FFFFFF" opacity="1.000000" stroke="none" 
	d="
M2160.731201,334.619507 
	C2156.669678,356.162170 2152.804443,377.318115 2149.019775,398.488403 
	C2145.633057,417.432404 2142.625000,436.449677 2138.884033,455.322388 
	C2136.803223,465.817993 2131.219482,474.476379 2122.032471,480.510803 
	C2110.237061,488.258728 2089.560303,489.503448 2079.187744,473.958130 
	C2075.206299,467.991272 2069.440674,463.206116 2064.432129,457.935699 
	C2057.013428,450.129333 2049.485596,442.426147 2042.110107,434.579407 
	C2027.741089,419.292511 2013.424805,403.955811 1999.134033,388.595642 
	C1995.578125,384.773651 1992.202881,380.783447 1988.001099,376.029266 
	C1986.844604,381.901794 1985.860229,386.571960 1985.012817,391.266907 
	C1982.714722,403.999023 1980.408813,416.730469 1978.229858,429.483307 
	C1976.074585,442.097595 1974.069092,454.737518 1972.001099,467.366730 
	C1971.294189,471.684113 1970.789917,476.049622 1969.765625,480.289886 
	C1969.499146,481.392639 1967.631104,482.872192 1966.485352,482.884033 
	C1950.170776,483.053101 1933.853760,482.999359 1916.898071,482.999359 
	C1917.764771,477.516998 1918.510254,472.325500 1919.416992,467.162292 
	C1921.570679,454.897369 1923.830566,442.651093 1925.991943,430.387451 
	C1928.266846,417.479065 1930.490479,404.561554 1932.712036,391.643829 
	C1934.824463,379.360626 1936.677002,367.027466 1939.061890,354.797791 
	C1941.643555,341.558014 1941.955322,327.745300 1948.015259,315.340576 
	C1953.796753,303.505798 1963.244263,297.154877 1976.630859,295.854065 
	C1988.722412,294.679108 1997.780518,298.490540 2004.980225,308.268250 
	C2008.968384,313.684601 2014.055420,318.301178 2018.723633,323.205536 
	C2026.607910,331.488586 2034.623657,339.647614 2042.457397,347.977997 
	C2056.601807,363.019012 2070.673828,378.128326 2084.727539,393.254242 
	C2088.278076,397.075378 2091.645264,401.066559 2095.431152,405.358795 
	C2099.040283,386.082031 2102.609863,367.596497 2105.937256,349.067505 
	C2108.769531,333.294922 2111.256836,317.460266 2114.115234,301.692719 
	C2114.365479,300.311066 2116.228271,298.174469 2117.366943,298.158569 
	C2133.837402,297.928223 2150.312012,298.000793 2166.879395,298.000793 
	C2164.865479,310.335388 2162.913818,322.287201 2160.731201,334.619507 
z"/>
<path fill="#FFFFFF" opacity="1.000000" stroke="none" 
	d="
M536.216064,372.438721 
	C540.753113,362.196869 545.391785,352.561310 552.301392,344.048035 
	C560.547791,333.887726 570.328491,325.786499 581.383362,318.899353 
	C597.645874,308.767883 615.557983,303.489319 634.148254,300.089050 
	C638.478882,299.296936 642.960205,299.079468 647.376099,299.040344 
	C692.440674,298.641052 737.506042,298.332916 782.571228,298.001648 
	C784.321594,297.988800 786.072021,298.000000 788.616394,298.000000 
	C787.708740,299.379181 787.384949,300.075775 786.883179,300.602905 
	C779.577759,308.276154 772.173157,315.856506 764.947510,323.603821 
	C758.554932,330.457947 752.487671,337.620300 745.969238,344.348633 
	C744.498779,345.866394 741.757263,346.878296 739.594116,346.890015 
	C709.608765,347.052612 679.611084,346.502625 649.639587,347.167877 
	C628.228760,347.643097 609.490295,355.287964 596.974304,373.699463 
	C587.125244,388.187836 586.258118,406.747131 598.692139,420.906860 
	C605.790710,428.990601 615.816711,433.651306 626.567749,433.831268 
	C670.622192,434.568726 714.687317,434.667023 758.748535,434.998474 
	C760.337219,435.010437 761.926086,435.000000 764.478943,435.000000 
	C755.456604,445.423492 747.046875,455.148987 738.625488,464.864349 
	C734.010559,470.188385 729.468872,475.581512 724.679749,480.744537 
	C723.590454,481.918884 721.615906,482.901215 720.044861,482.907013 
	C686.727234,483.029785 653.391113,483.667114 620.097107,482.771759 
	C596.871399,482.147156 575.447205,475.070038 557.524170,459.151428 
	C543.788086,446.951599 535.725037,432.059662 532.906250,413.931549 
	C530.722290,399.886078 532.500000,386.321350 536.216064,372.438721 
z"/>
<path fill="#FFFFFF" opacity="1.000000" stroke="none" 
	d="
M1702.979004,353.826294 
	C1701.640503,361.086456 1700.246094,367.889648 1699.017334,374.722656 
	C1697.156372,385.071472 1695.419312,395.442535 1693.613647,405.801361 
	C1691.950317,415.342743 1690.265869,424.880402 1688.512329,434.866272 
	C1728.620361,434.866272 1768.029541,434.866272 1808.340210,434.866272 
	C1802.305542,442.069519 1796.894043,448.703491 1791.292236,455.172729 
	C1783.773193,463.855988 1776.132812,472.435059 1768.466431,480.988892 
	C1767.651001,481.898895 1766.314209,482.915009 1765.217529,482.917053 
	C1718.226440,483.004242 1671.235107,482.982574 1624.243896,482.958954 
	C1623.943970,482.958801 1623.644043,482.746246 1622.643555,482.367920 
	C1633.470703,421.096161 1644.320190,359.698578 1655.188721,298.192963 
	C1674.118164,298.192963 1692.886353,298.192963 1712.381958,298.192963 
	C1709.219604,316.789825 1706.108398,335.086243 1702.979004,353.826294 
z"/>
<path fill="#FFFFFF" opacity="1.000000" stroke="none" 
	d="
M1904.981689,347.758362 
	C1903.310425,356.756592 1901.580444,365.297485 1900.017822,373.868805 
	C1897.757446,386.267914 1895.600586,398.686035 1893.432861,411.101837 
	C1891.597290,421.616302 1889.831909,432.142975 1887.994019,442.657013 
	C1886.157715,453.162262 1884.266357,463.657867 1882.407227,474.159149 
	C1881.903564,477.004089 1881.429077,479.854218 1880.919434,482.828857 
	C1861.938477,482.828857 1843.180908,482.828857 1823.359131,482.828857 
	C1834.269653,421.119995 1845.119385,359.755463 1856.001099,298.209534 
	C1874.898438,298.209534 1893.665527,298.209534 1913.236084,298.209534 
	C1912.346802,303.492371 1911.475464,308.651611 1910.610229,313.811859 
	C1908.737671,324.979126 1906.868286,336.146973 1904.981689,347.758362 
z"/>
<path fill="#FFFDFD" opacity="1.000000" stroke="none" 
	d="
M352.573059,284.415741 
	C378.833435,309.819489 393.688995,340.341156 397.418091,376.716217 
	C385.546692,376.716217 374.113983,376.716217 362.752472,376.716217 
	C360.484680,368.385925 358.816895,359.740143 355.799194,351.594482 
	C339.498779,307.595093 296.551392,278.753082 250.049606,280.171356 
	C201.904190,281.639771 159.881317,314.876099 147.377289,361.376007 
	C134.821289,408.069275 154.338898,457.293579 195.802734,482.924438 
	C199.101807,484.963715 200.179123,487.024200 200.092773,490.759857 
	C199.838959,501.741699 200.002304,512.733215 200.002304,524.965637 
	C192.484146,521.101746 185.403976,517.946716 178.800354,513.995300 
	C99.449226,466.514160 84.472809,357.512268 147.991150,290.399048 
	C202.025391,233.306702 290.959534,229.540726 349.707062,281.856720 
	C350.575836,282.630371 351.450867,283.397064 352.573059,284.415741 
z"/>
<path fill="#FFFEFE" opacity="1.000000" stroke="none" 
	d="
M340.407104,505.417358 
	C308.530670,528.911011 273.224335,537.824158 234.096497,533.364441 
	C234.096497,463.576324 234.096497,394.184784 234.096497,324.479492 
	C246.549561,324.479492 258.961182,324.479492 271.959991,324.479492 
	C271.959991,381.926849 271.959991,439.444702 271.959991,498.509735 
	C280.864380,495.554352 289.088348,493.563416 296.688934,490.174469 
	C329.798889,475.411499 350.757050,450.141144 359.712585,415.071106 
	C360.635651,411.456421 361.966583,410.691010 365.330109,410.758789 
	C375.459839,410.962921 385.596344,410.832428 396.506165,410.832428 
	C390.099518,449.972321 371.585175,481.208221 340.407104,505.417358 
z"/>
</svg>