<?xml version="1.0" standalone="no"?>
<!DOCTYPE svg PUBLIC "-//W3C//DTD SVG 20010904//EN"
 "http://www.w3.org/TR/2001/REC-SVG-20010904/DTD/svg10.dtd">
<svg version="1.1" xmlns="http://www.w3.org/2000/svg"
 width="456px" height="456px" viewBox="0 0 1000 1000"
 preserveAspectRatio="xMidYMid meet">
<g transform="translate(0,1000) scale(0.1,-0.1)"
fill="#000000" stroke="none">
<path d="M4755 9584 c-22 -2 -96 -9 -165 -15 -475 -42 -985 -185 -1436 -403
-1345 -650 -2296 -1980 -2503 -3501 -35 -253 -43 -389 -43 -665 0 -276 8 -412
43 -665 179 -1320 926 -2514 2019 -3228 576 -376 1209 -600 1920 -679 151 -17
669 -17 820 0 522 58 984 189 1435 406 1344 647 2297 1980 2504 3501 35 253
43 389 43 665 0 276 -8 412 -43 665 -166 1221 -819 2340 -1789 3066 -618 463
-1325 744 -2100 834 -126 15 -613 28 -705 19z m625 -1040 c918 -102 1756 -592
2329 -1363 130 -175 233 -346 336 -556 199 -404 301 -761 359 -1252 l7 -53
-418 0 -419 0 -12 93 c-29 213 -103 473 -196 692 -202 472 -548 889 -975 1175
-117 78 -343 196 -479 249 -660 257 -1396 221 -2032 -99 -405 -204 -782 -549
-1030 -944 -211 -335 -339 -685 -401 -1096 -32 -208 -32 -572 0 -780 74 -489
245 -903 532 -1287 107 -143 378 -411 525 -519 67 -49 149 -106 183 -127 l61
-37 0 -475 c0 -381 -3 -475 -13 -475 -21 0 -325 153 -427 215 -915 555 -1525
1484 -1679 2560 -53 369 -53 701 0 1070 193 1344 1113 2464 2355 2868 455 148
915 194 1394 141z m80 -4069 l0 -2135 28 6 c267 61 433 119 645 226 253 128
457 276 662 482 308 308 522 658 660 1081 24 72 54 178 66 238 l24 107 421 0
421 0 -14 -87 c-88 -554 -327 -1121 -664 -1574 -404 -543 -944 -952 -1561
-1182 -225 -84 -509 -151 -773 -183 -173 -20 -520 -23 -697 -4 l-128 13 0
2573 0 2574 455 0 455 0 0 -2135z"/>
</g>
</svg>
